<svg width="1000" height="1000" viewBox="0 0 1000 1000" fill="none" xmlns="http://www.w3.org/2000/svg">
<path d="M903.666 779.304C888.543 814.241 870.643 846.4 849.903 875.967C821.632 916.275 798.484 944.175 780.645 959.669C752.992 985.1 723.363 998.124 691.636 998.865C668.859 998.865 641.39 992.384 609.416 979.236C577.337 966.15 547.856 959.669 520.9 959.669C492.629 959.669 462.309 966.15 429.878 979.236C397.398 992.384 371.232 999.235 351.226 999.914C320.801 1001.21 290.475 987.816 260.204 959.669C240.884 942.817 216.718 913.929 187.768 873.004C156.708 829.302 131.171 778.625 111.166 720.849C89.7404 658.443 79 598.013 79 539.508C79 472.492 93.481 414.691 122.486 366.254C145.282 327.348 175.608 296.658 213.564 274.128C251.519 251.597 292.531 240.116 336.696 239.382C360.862 239.382 392.552 246.857 431.934 261.548C471.204 276.288 496.419 283.763 507.475 283.763C515.74 283.763 543.751 275.023 591.238 257.597C636.144 241.437 674.044 234.746 705.092 237.382C789.225 244.172 852.433 277.337 894.469 337.089C819.224 382.68 782.003 446.536 782.744 528.453C783.423 592.26 806.571 645.357 852.063 687.516C872.68 707.084 895.704 722.207 921.32 732.947C915.765 749.058 909.901 764.489 903.666 779.304ZM710.709 20.0057C710.709 70.0171 692.438 116.713 656.02 159.934C612.07 211.315 558.911 241.005 501.265 236.32C500.53 230.32 500.105 224.006 500.105 217.37C500.105 169.359 521.005 117.978 558.121 75.9669C576.652 54.696 600.219 37.0095 628.798 22.9006C657.316 9.00229 684.29 1.31621 709.66 0C710.401 6.68575 710.709 13.3726 710.709 20.0057Z" fill="white"/>
</svg>
